<svg id="Calque_1" data-name="Calque 1" xmlns="http://www.w3.org/2000/svg" viewBox="0 0 177.71 168.73"><defs><style>.cls-1{fill:#0d364d;}</style></defs><path class="cls-1" d="M160.19,24.36H133.46V9.52a7,7,0,0,0-14,0V24.36H58.79V9.52a7,7,0,0,0-14,0V24.36H17.51A17.53,17.53,0,0,0,0,41.87V151.21a17.54,17.54,0,0,0,17.51,17.52H160.19a17.54,17.54,0,0,0,17.52-17.52V41.87A17.53,17.53,0,0,0,160.19,24.36Zm-142.68,14H44.79V53.19a7,7,0,0,0,14,0V38.36h60.67V53.19a7,7,0,0,0,14,0V38.36h26.73a3.52,3.52,0,0,1,3.52,3.51V71.46H14V41.87A3.51,3.51,0,0,1,17.51,38.36Zm146.2,108v4.87a3.53,3.53,0,0,1-3.52,3.52H17.51A3.52,3.52,0,0,1,14,151.21V85.46H163.71v32.4S164,145.41,163.71,146.34Z"/><path class="cls-1" d="M49.84,102.16A7.77,7.77,0,0,0,49.2,101a7.44,7.44,0,0,0-.87-1.06A6.79,6.79,0,0,0,47.26,99a6.7,6.7,0,0,0-1.21-.65,7.35,7.35,0,0,0-1.31-.4A7,7,0,0,0,42,98a7.35,7.35,0,0,0-1.31.4,6.7,6.7,0,0,0-1.21.65,6.79,6.79,0,0,0-1.07.87,7.44,7.44,0,0,0-.87,1.06,7.77,7.77,0,0,0-.64,1.21,7.35,7.35,0,0,0-.4,1.31,6.72,6.72,0,0,0,0,2.73,7.21,7.21,0,0,0,1,2.52,7.53,7.53,0,0,0,.87,1.07,8.13,8.13,0,0,0,1.07.87,7.21,7.21,0,0,0,2.52,1,6.72,6.72,0,0,0,2.73,0,7.21,7.21,0,0,0,2.52-1,8.13,8.13,0,0,0,1.07-.87,7.53,7.53,0,0,0,.87-1.07,7.21,7.21,0,0,0,1-2.52,7.23,7.23,0,0,0,0-2.73A7.35,7.35,0,0,0,49.84,102.16Z"/><path class="cls-1" d="M80.16,102.16a7.77,7.77,0,0,0-.64-1.21,7.44,7.44,0,0,0-.87-1.06A6.79,6.79,0,0,0,77.58,99a6.7,6.7,0,0,0-1.21-.65,7.35,7.35,0,0,0-1.31-.4,7,7,0,0,0-2.73,0,7.35,7.35,0,0,0-1.31.4,6.7,6.7,0,0,0-1.21.65,6.79,6.79,0,0,0-1.07.87,7.44,7.44,0,0,0-.87,1.06,7.77,7.77,0,0,0-.64,1.21,7.35,7.35,0,0,0-.4,1.31,6.72,6.72,0,0,0,0,2.73,7.21,7.21,0,0,0,1,2.52,7.53,7.53,0,0,0,.87,1.07,8.13,8.13,0,0,0,1.07.87,7.21,7.21,0,0,0,2.52,1,6.72,6.72,0,0,0,2.73,0,7.21,7.21,0,0,0,2.52-1,8.13,8.13,0,0,0,1.07-.87,7.53,7.53,0,0,0,.87-1.07,7.21,7.21,0,0,0,1-2.52,7.23,7.23,0,0,0,0-2.73A7.35,7.35,0,0,0,80.16,102.16Z"/><path class="cls-1" d="M110.48,102.16a7.77,7.77,0,0,0-.64-1.21,7.37,7.37,0,0,0-.86-1.06A6.86,6.86,0,0,0,107.9,99a6.38,6.38,0,0,0-1.21-.65,7.11,7.11,0,0,0-1.31-.4,7,7,0,0,0-2.73,0,7.89,7.89,0,0,0-1.31.4,7.44,7.44,0,0,0-1.21.65,6.72,6.72,0,0,0-1.06.87,8.25,8.25,0,0,0-.88,1.06,7.77,7.77,0,0,0-.64,1.21,8.27,8.27,0,0,0-.4,1.31,7.23,7.23,0,0,0,0,2.73,8.27,8.27,0,0,0,.4,1.31,7.34,7.34,0,0,0,.64,1.21,8.35,8.35,0,0,0,.88,1.07,8,8,0,0,0,1.06.87,7.39,7.39,0,0,0,1.21.64,7,7,0,0,0,1.31.4,7.16,7.16,0,0,0,1.37.14,6.82,6.82,0,0,0,1.36-.14,6.42,6.42,0,0,0,1.31-.4,6.34,6.34,0,0,0,1.21-.64,8.22,8.22,0,0,0,1.08-.87,7.46,7.46,0,0,0,.86-1.07,7.21,7.21,0,0,0,1-2.52,6.72,6.72,0,0,0,0-2.73A7.35,7.35,0,0,0,110.48,102.16Z"/><path class="cls-1" d="M140.81,129a7.77,7.77,0,0,0-.64-1.21,7.44,7.44,0,0,0-.87-1.06,6.79,6.79,0,0,0-1.07-.87,6.7,6.7,0,0,0-1.21-.65,7.35,7.35,0,0,0-1.31-.4,7,7,0,0,0-2.73,0,7.35,7.35,0,0,0-1.31.4,6.7,6.7,0,0,0-1.21.65,6.79,6.79,0,0,0-1.07.87,7.44,7.44,0,0,0-.87,1.06,7.77,7.77,0,0,0-.64,1.21,7.35,7.35,0,0,0-.4,1.31,6.72,6.72,0,0,0,0,2.73,7.21,7.21,0,0,0,1,2.52,7.53,7.53,0,0,0,.87,1.07,8.13,8.13,0,0,0,1.07.87,7.21,7.21,0,0,0,2.52,1,6.72,6.72,0,0,0,2.73,0,7.21,7.21,0,0,0,2.52-1,8.13,8.13,0,0,0,1.07-.87,7.53,7.53,0,0,0,.87-1.07,7.21,7.21,0,0,0,1-2.52,7.23,7.23,0,0,0,0-2.73A7.35,7.35,0,0,0,140.81,129Z"/><path class="cls-1" d="M140.81,102.16a7.77,7.77,0,0,0-.64-1.21,7.44,7.44,0,0,0-.87-1.06,6.79,6.79,0,0,0-1.07-.87,6.7,6.7,0,0,0-1.21-.65,7.35,7.35,0,0,0-1.31-.4A7,7,0,0,0,133,98a7.35,7.35,0,0,0-1.31.4,6.7,6.7,0,0,0-1.21.65,6.79,6.79,0,0,0-1.07.87,7.44,7.44,0,0,0-.87,1.06,7.77,7.77,0,0,0-.64,1.21,7.35,7.35,0,0,0-.4,1.31,6.72,6.72,0,0,0,0,2.73,7.21,7.21,0,0,0,1,2.52,7.53,7.53,0,0,0,.87,1.07,8.13,8.13,0,0,0,1.07.87,7.21,7.21,0,0,0,2.52,1,6.72,6.72,0,0,0,2.73,0,7.21,7.21,0,0,0,2.52-1,8.13,8.13,0,0,0,1.07-.87,7.53,7.53,0,0,0,.87-1.07,7.21,7.21,0,0,0,1-2.52,7.23,7.23,0,0,0,0-2.73A7.35,7.35,0,0,0,140.81,102.16Z"/><path class="cls-1" d="M49.84,129.94a7.77,7.77,0,0,0-.64-1.21,7.44,7.44,0,0,0-.87-1.06,6.79,6.79,0,0,0-1.07-.87,6.7,6.7,0,0,0-1.21-.65,7.35,7.35,0,0,0-1.31-.4,7,7,0,0,0-2.73,0,7.35,7.35,0,0,0-1.31.4,6.7,6.7,0,0,0-1.21.65,6.79,6.79,0,0,0-1.07.87,7.44,7.44,0,0,0-.87,1.06,7.77,7.77,0,0,0-.64,1.21,7.35,7.35,0,0,0-.4,1.31,6.72,6.72,0,0,0,0,2.73,7.21,7.21,0,0,0,1,2.52,7.53,7.53,0,0,0,.87,1.07,8.13,8.13,0,0,0,1.07.87,7.21,7.21,0,0,0,2.52,1,6.72,6.72,0,0,0,2.73,0,7.21,7.21,0,0,0,2.52-1,8.13,8.13,0,0,0,1.07-.87,7.53,7.53,0,0,0,.87-1.07,7.21,7.21,0,0,0,1-2.52,7.23,7.23,0,0,0,0-2.73A7.35,7.35,0,0,0,49.84,129.94Z"/><path class="cls-1" d="M80.16,129.94a7.77,7.77,0,0,0-.64-1.21,7.44,7.44,0,0,0-.87-1.06,6.79,6.79,0,0,0-1.07-.87,6.7,6.7,0,0,0-1.21-.65,7.35,7.35,0,0,0-1.31-.4,7,7,0,0,0-2.73,0,7.35,7.35,0,0,0-1.31.4,6.7,6.7,0,0,0-1.21.65,6.79,6.79,0,0,0-1.07.87,7.44,7.44,0,0,0-.87,1.06,7.77,7.77,0,0,0-.64,1.21,7.35,7.35,0,0,0-.4,1.31,6.72,6.72,0,0,0,0,2.73,7.21,7.21,0,0,0,1,2.52,7.53,7.53,0,0,0,.87,1.07,8.13,8.13,0,0,0,1.07.87,7.21,7.21,0,0,0,2.52,1,6.72,6.72,0,0,0,2.73,0,7.21,7.21,0,0,0,2.52-1,8.13,8.13,0,0,0,1.07-.87,7.53,7.53,0,0,0,.87-1.07,7.21,7.21,0,0,0,1-2.52,7.23,7.23,0,0,0,0-2.73A7.35,7.35,0,0,0,80.16,129.94Z"/><path class="cls-1" d="M110.48,129.94a7.77,7.77,0,0,0-.64-1.21,7.37,7.37,0,0,0-.86-1.06,6.86,6.86,0,0,0-1.08-.87,6.38,6.38,0,0,0-1.21-.65,7.11,7.11,0,0,0-1.31-.4,7,7,0,0,0-2.73,0,7.89,7.89,0,0,0-1.31.4,7.44,7.44,0,0,0-1.21.65,6.72,6.72,0,0,0-1.06.87,8.25,8.25,0,0,0-.88,1.06,7.77,7.77,0,0,0-.64,1.21,8.27,8.27,0,0,0-.4,1.31,7.23,7.23,0,0,0,0,2.73,8.27,8.27,0,0,0,.4,1.31,7.34,7.34,0,0,0,.64,1.21,8.35,8.35,0,0,0,.88,1.07,8,8,0,0,0,1.06.87,7.39,7.39,0,0,0,1.21.64,7,7,0,0,0,1.31.4,7.16,7.16,0,0,0,1.37.14,6.82,6.82,0,0,0,1.36-.14,6.42,6.42,0,0,0,1.31-.4,6.34,6.34,0,0,0,1.21-.64,8.22,8.22,0,0,0,1.08-.87,7.46,7.46,0,0,0,.86-1.07,7.21,7.21,0,0,0,1-2.52,6.72,6.72,0,0,0,0-2.73A7.35,7.35,0,0,0,110.48,129.94Z"/></svg>