<svg id="Calque_1" data-name="Calque 1" xmlns="http://www.w3.org/2000/svg" xmlns:xlink="http://www.w3.org/1999/xlink" viewBox="0 0 11.81 12.22"><defs><style>.cls-1{fill:none;}.cls-2{clip-path:url(#clip-path);}.cls-3{fill:#fff;}</style><clipPath id="clip-path"><rect class="cls-1" x="-1.56" y="4.87" width="14.09" height="3.22" transform="translate(-2.98 5.77) rotate(-45)"/></clipPath></defs><g id="Groupe_66" data-name="Groupe 66"><g class="cls-2"><g id="Groupe_65" data-name="Groupe 65"><path id="Tracé_76" data-name="Tracé 76" class="cls-3" d="M2.85,10.85,1.11,9.12a.39.39,0,0,1,0-.55L8.75.94A.81.81,0,0,1,9.9.94h0L11,2.06a.82.82,0,0,1,0,1.16L3.39,10.85a.38.38,0,0,1-.54,0"/><path id="Tracé_77" data-name="Tracé 77" class="cls-3" d="M2.32,11.63l-1.46,0A.59.59,0,0,1,.28,11h0l0-1.38A.34.34,0,0,1,.7,9.31a.32.32,0,0,1,.22.1l1.66,1.66a.32.32,0,0,1,0,.46.33.33,0,0,1-.25.1"/></g></g></g></svg>