<svg id="Calque_1" data-name="Calque 1" xmlns="http://www.w3.org/2000/svg" viewBox="0 0 120 120"><defs><style>.cls-1{fill:#3498db;}.cls-2{fill:#fff;}.cls-3{fill:#0d364d;}</style></defs><g id="logo"><path id="Tracé_13" data-name="Tracé 13" class="cls-1" d="M60,33.17A29.75,29.75,0,0,0,37.92,82.93l-.46,7.25-.6,9.36,8.4-4.17,7.26-3.61A29.75,29.75,0,1,0,60,33.17Z"/><rect id="Rectangle_81" data-name="Rectangle 81" class="cls-2" x="8.77" y="56.09" width="4.95" height="20.95" rx="0.98"/><path id="Tracé_14" data-name="Tracé 14" class="cls-2" d="M102.23,52.3a43.6,43.6,0,0,0-84.57,0,4.22,4.22,0,0,0-3.41,4.14V76.75A4.22,4.22,0,0,0,18.47,81h2.9a4.22,4.22,0,0,0,4.21-4.21h0V56.44a4.23,4.23,0,0,0-3.41-4.14,39.23,39.23,0,0,1,75.54,0,4.24,4.24,0,0,0-3.42,4.14V76.75A4.19,4.19,0,0,0,96,80,26.55,26.55,0,0,1,78.8,94.53c-.84.12-3.61.36-4.88-1-1.45-1.65-8.54-1.45-8.54,2.74-.48,3.79-.08,4.44.42,4.44,17.15,0,29-7.07,34.46-19.83h1.2a4.22,4.22,0,0,0,4.23-4.22h0V56.32a4.25,4.25,0,0,0-3.47-4Z"/><rect id="Rectangle_82" data-name="Rectangle 82" class="cls-2" x="106.29" y="56.09" width="4.95" height="20.95" rx="0.98"/><path id="Tracé_15" data-name="Tracé 15" class="cls-3" d="M76.12,56.22h-9.4V46.88A3.76,3.76,0,0,0,63,43.12H57a3.76,3.76,0,0,0-3.76,3.76h0v9.34H43.93A3.76,3.76,0,0,0,40.17,60h0v5.9a3.76,3.76,0,0,0,3.76,3.76h9.35V79A3.76,3.76,0,0,0,57,82.76H63A3.76,3.76,0,0,0,66.72,79h0V69.65h9.4a3.77,3.77,0,0,0,3.77-3.75V60a3.77,3.77,0,0,0-3.77-3.78Z"/></g></svg>