<svg id="Calque_1" data-name="Calque 1" xmlns="http://www.w3.org/2000/svg" viewBox="0 0 209.48 65.19"><defs><style>.cls-1,.cls-3{isolation:isolate;}.cls-2{fill:#0d364d;}.cls-3{fill:#3498db;}.cls-4{fill:#fff;}</style></defs><g class="cls-1"><path class="cls-2" d="M105.05,36.51H99.54l-.88,2.6H94.9l5.34-14.74h4.15l5.34,14.74h-3.8Zm-2.76-8.17-1.8,5.4h3.63Z"/><path class="cls-2" d="M111.35,23.57h3.59V39.11h-3.59Z"/><path class="cls-2" d="M117.54,23.57h3.59V39.11h-3.59Z"/><path class="cls-2" d="M129.07,39.28a5.75,5.75,0,0,1-6-6,6.09,6.09,0,0,1,12.18,0A5.82,5.82,0,0,1,129.07,39.28Zm0-3.11c1.28,0,2.48-.94,2.48-2.92s-1.18-2.92-2.44-2.92-2.43.93-2.43,2.92S127.77,36.17,129.07,36.17Z"/><path class="cls-2" d="M146.9,39.26c-3.17,0-5.65-1.58-5.75-4.56H145a1.68,1.68,0,0,0,1.82,1.68c1.05,0,1.73-.52,1.73-1.38,0-2.73-7.37-1.26-7.33-6.49,0-2.79,2.29-4.35,5.37-4.35s5.38,1.6,5.52,4.41H148.2A1.59,1.59,0,0,0,146.5,27,1.31,1.31,0,0,0,145,28.38c0,2.56,7.28,1.41,7.28,6.34C152.27,37.2,150.34,39.26,146.9,39.26Z"/><path class="cls-2" d="M158.93,27.23a4.09,4.09,0,0,1,3.61,1.82V27.4h3.59V39.11h-3.59V37.45a4.14,4.14,0,0,1-3.63,1.83c-2.86,0-5.14-2.35-5.14-6.05S156.05,27.23,158.93,27.23Zm1,3.13a2.6,2.6,0,0,0-2.56,2.87A2.65,2.65,0,0,0,160,36.15a2.61,2.61,0,0,0,2.56-2.9A2.6,2.6,0,0,0,160,30.36Z"/><path class="cls-2" d="M176.82,32.75a2.26,2.26,0,1,0-4.49,0v6.36h-3.59V27.4h3.59V29a4.28,4.28,0,0,1,3.55-1.68c2.71,0,4.51,1.85,4.51,5v6.84h-3.57Z"/><path class="cls-2" d="M183.46,30.38H182v-3h1.43V24.54h3.59V27.4h2.35v3h-2.35v4.7c0,.69.29,1,1.09,1h1.28v3H187.6c-2.44,0-4.14-1-4.14-4.07Z"/><path class="cls-2" d="M196.63,39.28a5.65,5.65,0,0,1-5.93-6,5.63,5.63,0,0,1,5.93-6,5.52,5.52,0,0,1,5.83,5.83,9.37,9.37,0,0,1-.06,1h-8.13a2.18,2.18,0,0,0,2.23,2.25,1.91,1.91,0,0,0,1.87-1.13h3.82A5.48,5.48,0,0,1,196.63,39.28ZM199,21.6v2.79L194,26.51V24ZM194.3,32.12h4.49a2,2,0,0,0-2.21-2A2.22,2.22,0,0,0,194.3,32.12Z"/></g><path class="cls-3" d="M40.89,12.7A20.5,20.5,0,0,0,25.67,47l-.32,5-.41,6.45,5.79-2.87,5-2.49A20.51,20.51,0,1,0,40.89,12.7Z"/><rect class="cls-2" x="5.57" y="28.5" width="3.41" height="14.44" rx="0.98"/><path class="cls-2" d="M70,25.89a30.06,30.06,0,0,0-58.3,0,2.91,2.91,0,0,0-2.35,2.85v14a2.91,2.91,0,0,0,2.91,2.91h2a2.9,2.9,0,0,0,2.9-2.91v-14a2.91,2.91,0,0,0-2.35-2.85,27.05,27.05,0,0,1,52.08,0,2.92,2.92,0,0,0-2.36,2.85v14A2.9,2.9,0,0,0,65.67,45,18.3,18.3,0,0,1,53.85,55c-.58.08-2.49.25-3.36-.71-1-1.14-5.89-1-5.89,1.89-.33,2.61-.06,3.06.29,3.06,11.82,0,20-4.87,23.76-13.67h.83a2.91,2.91,0,0,0,2.91-2.91v-14A2.92,2.92,0,0,0,70,25.89Z"/><rect class="cls-2" x="72.8" y="28.5" width="3.41" height="14.44" rx="0.98"/><path class="cls-4" d="M52,28.59H45.52V22.15a2.59,2.59,0,0,0-2.59-2.59H38.85a2.59,2.59,0,0,0-2.59,2.59v6.44H29.81a2.59,2.59,0,0,0-2.59,2.6v4.07a2.59,2.59,0,0,0,2.59,2.59h6.45V44.3a2.59,2.59,0,0,0,2.59,2.59h4.08a2.59,2.59,0,0,0,2.59-2.59V37.85H52a2.6,2.6,0,0,0,2.6-2.59V31.19A2.6,2.6,0,0,0,52,28.59Z"/></svg>