<svg id="Calque_1" data-name="Calque 1" xmlns="http://www.w3.org/2000/svg" viewBox="0 0 71 71"><defs><style>.cls-1{fill:#3498db;isolation:isolate;}.cls-2{fill:#0d364d;}.cls-3{fill:#fff;}</style></defs><path class="cls-1" d="M35.5,17A20.5,20.5,0,0,0,20.28,51.23l-.32,5-.4,6.45,5.79-2.87,5-2.49A20.51,20.51,0,1,0,35.5,17Z"/><rect class="cls-2" x="0.19" y="32.78" width="3.41" height="14.44" rx="0.98"/><path class="cls-2" d="M64.65,30.17a30.06,30.06,0,0,0-58.3,0A2.91,2.91,0,0,0,4,33V47a2.91,2.91,0,0,0,2.91,2.91h2A2.9,2.9,0,0,0,11.81,47V33a2.91,2.91,0,0,0-2.35-2.85,27,27,0,0,1,52.08,0A2.91,2.91,0,0,0,59.19,33V47a2.89,2.89,0,0,0,1.09,2.26A18.26,18.26,0,0,1,48.46,59.31c-.58.08-2.49.26-3.36-.7-1-1.14-5.89-1-5.89,1.89-.33,2.61-.06,3.06.29,3.06,11.83,0,20-4.87,23.76-13.67h.83A2.91,2.91,0,0,0,67,47V33A2.91,2.91,0,0,0,64.65,30.17Z"/><rect class="cls-2" x="67.41" y="32.78" width="3.41" height="14.44" rx="0.98"/><path class="cls-3" d="M46.57,32.87H40.13V26.43a2.59,2.59,0,0,0-2.59-2.6H33.46a2.59,2.59,0,0,0-2.59,2.6v6.44H24.43a2.59,2.59,0,0,0-2.6,2.59v4.08a2.59,2.59,0,0,0,2.6,2.59h6.44v6.44a2.59,2.59,0,0,0,2.59,2.6h4.08a2.59,2.59,0,0,0,2.59-2.6V42.13h6.44a2.59,2.59,0,0,0,2.6-2.59V35.46A2.59,2.59,0,0,0,46.57,32.87Z"/></svg>