<svg id="Calque_1" data-name="Calque 1" xmlns="http://www.w3.org/2000/svg" viewBox="0 0 10 10"><defs><style>.cls-1{fill:#6e6e6e;}</style></defs><g id="_1" data-name=" 1"><path id="Tracé_76" data-name="Tracé 76" class="cls-1" d="M7.36,9.7H5.19A3.44,3.44,0,0,1,4,9.47L2.27,8.85a.38.38,0,0,1,.26-.71l1.69.63a2.68,2.68,0,0,0,1,.17H7.36a.35.35,0,0,0,.36-.35.36.36,0,0,0-.36-.36A.36.36,0,0,1,7,7.86a.37.37,0,0,1,.37-.38h.51a.36.36,0,1,0,0-.71.38.38,0,0,1,0-.75h.51a.36.36,0,1,0,0-.71.38.38,0,0,1,0-.75h.51a.36.36,0,1,0,0-.71H5.35A.37.37,0,0,1,5,3.48a.41.41,0,0,1,0-.19,2.3,2.3,0,0,0,.23-.73,2,2,0,0,0-.31-1.47A.31.31,0,0,0,4.51,1a.34.34,0,0,0-.13.25A2.7,2.7,0,0,1,2.67,4a.37.37,0,0,1-.49-.2.36.36,0,0,1,.19-.49,2,2,0,0,0,1-.88,2.33,2.33,0,0,0,.24-1.13,1.06,1.06,0,0,1,1-1.06,1.07,1.07,0,0,1,.89.46A2.82,2.82,0,0,1,5.9,3.1h3a1.11,1.11,0,0,1,.49,2.1,1.12,1.12,0,0,1-.52,1.46,1.1,1.1,0,0,1-.51,1.46,1.11,1.11,0,0,1-.53,1.47,1.29,1.29,0,0,1-.47.11Z"/><path id="Tracé_77" data-name="Tracé 77" class="cls-1" d="M2.52,9.14H.37A.38.38,0,0,1,0,8.76H0V3.62a.37.37,0,0,1,.37-.37H2.52a.37.37,0,0,1,.38.37h0V8.76a.38.38,0,0,1-.38.38ZM.75,8.39h1.4V4H.75Z"/></g></svg>