<svg id="Calque_1" data-name="Calque 1" xmlns="http://www.w3.org/2000/svg" viewBox="0 0 165.7 166.72"><defs><style>.cls-1{fill:#0d364d;}</style></defs><path class="cls-1" d="M37.37,105.33A28.89,28.89,0,1,1,66.26,76.44,28.92,28.92,0,0,1,37.37,105.33Zm0-43.77A14.89,14.89,0,1,0,52.26,76.44,14.9,14.9,0,0,0,37.37,61.56Z"/><path class="cls-1" d="M67.74,166.72a7,7,0,0,1-7-7V148.48a23.37,23.37,0,0,0-46.74,0v11.24a7,7,0,0,1-14,0V148.48a37.37,37.37,0,0,1,74.74,0v11.24A7,7,0,0,1,67.74,166.72Z"/><path class="cls-1" d="M128.33,57.78a28.89,28.89,0,1,1,28.89-28.89A28.92,28.92,0,0,1,128.33,57.78Zm0-43.78a14.89,14.89,0,1,0,14.89,14.89A14.91,14.91,0,0,0,128.33,14Z"/><path class="cls-1" d="M158.7,166.72a7,7,0,0,1-7-7V100.93a23.37,23.37,0,1,0-46.74,0v58.79a7,7,0,0,1-14,0V100.93a37.37,37.37,0,1,1,74.74,0v58.79A7,7,0,0,1,158.7,166.72Z"/></svg>