<svg id="Calque_1" data-name="Calque 1" xmlns="http://www.w3.org/2000/svg" viewBox="0 0 191.44 181.85"><defs><style>.cls-1{fill:#0d364d;}.cls-2{fill:#e55c3c;}</style></defs><path class="cls-1" d="M160.19,23.76H133.46V8.92a7,7,0,0,0-14,0V23.76H58.79V8.92a7,7,0,0,0-14,0V23.76H17.51A17.53,17.53,0,0,0,0,41.27V150.61a17.54,17.54,0,0,0,17.51,17.52H126.84a44.82,44.82,0,0,1,0-14H17.51A3.52,3.52,0,0,1,14,150.61V84.87H163.71v32.39a44.82,44.82,0,0,1,14,0v-76A17.53,17.53,0,0,0,160.19,23.76ZM14,70.87V41.27a3.51,3.51,0,0,1,3.51-3.51H44.79V52.59a7,7,0,0,0,14,0V37.76h60.67V52.59a7,7,0,0,0,14,0V37.76h26.73a3.52,3.52,0,0,1,3.52,3.51v29.6Z"/><path class="cls-1" d="M50.24,102.87a7.35,7.35,0,0,0-.4-1.31,7.77,7.77,0,0,0-.64-1.21,7.44,7.44,0,0,0-.87-1.06,6.79,6.79,0,0,0-1.07-.87,6.7,6.7,0,0,0-1.21-.65,7.35,7.35,0,0,0-1.31-.4,7,7,0,0,0-2.73,0,7.35,7.35,0,0,0-1.31.4,6.7,6.7,0,0,0-1.21.65,6.79,6.79,0,0,0-1.07.87,7.44,7.44,0,0,0-.87,1.06,7.77,7.77,0,0,0-.64,1.21,7.35,7.35,0,0,0-.4,1.31,6.72,6.72,0,0,0,0,2.73,7.21,7.21,0,0,0,1,2.52,7.53,7.53,0,0,0,.87,1.07,8.13,8.13,0,0,0,1.07.87,7.21,7.21,0,0,0,2.52,1,6.72,6.72,0,0,0,2.73,0,7.21,7.21,0,0,0,2.52-1,8.13,8.13,0,0,0,1.07-.87,7.53,7.53,0,0,0,.87-1.07,7.21,7.21,0,0,0,1-2.52,7.23,7.23,0,0,0,0-2.73Z"/><path class="cls-1" d="M80.56,102.87a7.35,7.35,0,0,0-.4-1.31,7.77,7.77,0,0,0-.64-1.21,7.44,7.44,0,0,0-.87-1.06,6.79,6.79,0,0,0-1.07-.87,6.7,6.7,0,0,0-1.21-.65,7.35,7.35,0,0,0-1.31-.4,7,7,0,0,0-2.73,0,7.35,7.35,0,0,0-1.31.4,6.7,6.7,0,0,0-1.21.65,6.79,6.79,0,0,0-1.07.87,7.44,7.44,0,0,0-.87,1.06,7.77,7.77,0,0,0-.64,1.21,7.35,7.35,0,0,0-.4,1.31,6.72,6.72,0,0,0,0,2.73,7.21,7.21,0,0,0,1,2.52,7.53,7.53,0,0,0,.87,1.07,8.13,8.13,0,0,0,1.07.87,7.21,7.21,0,0,0,2.52,1,6.72,6.72,0,0,0,2.73,0,7.21,7.21,0,0,0,2.52-1,8.13,8.13,0,0,0,1.07-.87,7.53,7.53,0,0,0,.87-1.07,7.21,7.21,0,0,0,1-2.52,7.23,7.23,0,0,0,0-2.73Z"/><path class="cls-1" d="M110.88,102.87a7.35,7.35,0,0,0-.4-1.31,7.77,7.77,0,0,0-.64-1.21,7.37,7.37,0,0,0-.86-1.06,6.86,6.86,0,0,0-1.08-.87,6.38,6.38,0,0,0-1.21-.65,7.11,7.11,0,0,0-1.31-.4,7,7,0,0,0-2.73,0,7.89,7.89,0,0,0-1.31.4,7.44,7.44,0,0,0-1.21.65,6.72,6.72,0,0,0-1.06.87,8.25,8.25,0,0,0-.88,1.06,7.77,7.77,0,0,0-.64,1.21,8.27,8.27,0,0,0-.4,1.31,7.23,7.23,0,0,0,0,2.73,8.27,8.27,0,0,0,.4,1.31,7.34,7.34,0,0,0,.64,1.21,8.35,8.35,0,0,0,.88,1.07,8,8,0,0,0,1.06.87,7.39,7.39,0,0,0,1.21.64,7,7,0,0,0,1.31.4,7.16,7.16,0,0,0,1.37.14,6.82,6.82,0,0,0,1.36-.14,6.42,6.42,0,0,0,1.31-.4,6.34,6.34,0,0,0,1.21-.64,8.22,8.22,0,0,0,1.08-.87,7.46,7.46,0,0,0,.86-1.07,7.21,7.21,0,0,0,1-2.52,6.72,6.72,0,0,0,0-2.73Z"/><path class="cls-1" d="M140.81,101.56a7.77,7.77,0,0,0-.64-1.21,7.44,7.44,0,0,0-.87-1.06,6.79,6.79,0,0,0-1.07-.87,6.7,6.7,0,0,0-1.21-.65,7.35,7.35,0,0,0-1.31-.4,7,7,0,0,0-2.73,0,7.35,7.35,0,0,0-1.31.4,6.7,6.7,0,0,0-1.21.65,6.79,6.79,0,0,0-1.07.87,7.44,7.44,0,0,0-.87,1.06,7.77,7.77,0,0,0-.64,1.21,7.35,7.35,0,0,0-.4,1.31,6.72,6.72,0,0,0,0,2.73,7.21,7.21,0,0,0,1,2.52,7.53,7.53,0,0,0,.87,1.07,8.13,8.13,0,0,0,1.07.87,7.21,7.21,0,0,0,2.52,1,6.72,6.72,0,0,0,2.73,0,7.21,7.21,0,0,0,2.52-1,8.13,8.13,0,0,0,1.07-.87,7.53,7.53,0,0,0,.87-1.07,7.21,7.21,0,0,0,1-2.52,7.23,7.23,0,0,0,0-2.73A7.35,7.35,0,0,0,140.81,101.56Z"/><path class="cls-1" d="M49.84,129.34a7.77,7.77,0,0,0-.64-1.21,7.44,7.44,0,0,0-.87-1.06,6.79,6.79,0,0,0-1.07-.87,6.7,6.7,0,0,0-1.21-.65,7.35,7.35,0,0,0-1.31-.4,7,7,0,0,0-2.73,0,7.35,7.35,0,0,0-1.31.4,6.7,6.7,0,0,0-1.21.65,6.79,6.79,0,0,0-1.07.87,7.44,7.44,0,0,0-.87,1.06,7.77,7.77,0,0,0-.64,1.21,7.35,7.35,0,0,0-.4,1.31,6.72,6.72,0,0,0,0,2.73,7.21,7.21,0,0,0,1,2.52,7.53,7.53,0,0,0,.87,1.07,8.13,8.13,0,0,0,1.07.87,7.21,7.21,0,0,0,2.52,1,6.72,6.72,0,0,0,2.73,0,7.21,7.21,0,0,0,2.52-1,8.13,8.13,0,0,0,1.07-.87,7.53,7.53,0,0,0,.87-1.07,7.21,7.21,0,0,0,1-2.52,7.23,7.23,0,0,0,0-2.73A7.35,7.35,0,0,0,49.84,129.34Z"/><path class="cls-1" d="M80.16,129.34a7.77,7.77,0,0,0-.64-1.21,7.44,7.44,0,0,0-.87-1.06,6.79,6.79,0,0,0-1.07-.87,6.7,6.7,0,0,0-1.21-.65,7.35,7.35,0,0,0-1.31-.4,7,7,0,0,0-2.73,0,7.35,7.35,0,0,0-1.31.4,6.7,6.7,0,0,0-1.21.65,6.79,6.79,0,0,0-1.07.87,7.44,7.44,0,0,0-.87,1.06,7.77,7.77,0,0,0-.64,1.21,7.35,7.35,0,0,0-.4,1.31,6.72,6.72,0,0,0,0,2.73,7.21,7.21,0,0,0,1,2.52,7.53,7.53,0,0,0,.87,1.07,8.13,8.13,0,0,0,1.07.87,7.21,7.21,0,0,0,2.52,1,6.72,6.72,0,0,0,2.73,0,7.21,7.21,0,0,0,2.52-1,8.13,8.13,0,0,0,1.07-.87,7.53,7.53,0,0,0,.87-1.07,7.21,7.21,0,0,0,1-2.52,7.23,7.23,0,0,0,0-2.73A7.35,7.35,0,0,0,80.16,129.34Z"/><path class="cls-1" d="M110.48,129.34a7.77,7.77,0,0,0-.64-1.21,7.37,7.37,0,0,0-.86-1.06,6.86,6.86,0,0,0-1.08-.87,6.38,6.38,0,0,0-1.21-.65,7.11,7.11,0,0,0-1.31-.4,7,7,0,0,0-2.73,0,7.89,7.89,0,0,0-1.31.4,7.44,7.44,0,0,0-1.21.65,6.72,6.72,0,0,0-1.06.87,8.25,8.25,0,0,0-.88,1.06,7.77,7.77,0,0,0-.64,1.21,8.27,8.27,0,0,0-.4,1.31,7.23,7.23,0,0,0,0,2.73,8.27,8.27,0,0,0,.4,1.31,7.34,7.34,0,0,0,.64,1.21,8.35,8.35,0,0,0,.88,1.07,8,8,0,0,0,1.06.87,7.39,7.39,0,0,0,1.21.64,7,7,0,0,0,1.31.4A7.16,7.16,0,0,0,104,139a6.82,6.82,0,0,0,1.36-.14,6.42,6.42,0,0,0,1.31-.4,6.34,6.34,0,0,0,1.21-.64A8.22,8.22,0,0,0,109,137a7.46,7.46,0,0,0,.86-1.07,7.21,7.21,0,0,0,1-2.52,6.72,6.72,0,0,0,0-2.73A7.35,7.35,0,0,0,110.48,129.34Z"/><path class="cls-2" d="M191,173a1.56,1.56,0,0,1,0,2.22l-6.17,6.17a1.56,1.56,0,0,1-2.22,0l-10.76-10.76a1.58,1.58,0,0,0-2.22,0l-10.77,10.76a1.56,1.56,0,0,1-2.22,0l-6.17-6.17a1.58,1.58,0,0,1,0-2.22l4.87-4.87,5.89-5.89a1.56,1.56,0,0,0,0-2.22l-5.88-5.89-4.88-4.88a1.58,1.58,0,0,1,0-2.22l6.17-6.17a1.58,1.58,0,0,1,2.22,0l4.88,4.88,5.89,5.88a1.56,1.56,0,0,0,2.22,0l5.89-5.89,4.87-4.87a1.58,1.58,0,0,1,2.22,0L191,147a1.56,1.56,0,0,1,0,2.22L180.21,160a1.58,1.58,0,0,0,0,2.22Z"/></svg>