<svg id="Calque_1" data-name="Calque 1" xmlns="http://www.w3.org/2000/svg" viewBox="0 0 194.42 186.18"><defs><style>.cls-1{fill:#0d364d;}.cls-2{fill:#39b54a;}</style></defs><path class="cls-1" d="M160.19,21.84H133.46V7a7,7,0,0,0-14,0V21.84H58.79V7a7,7,0,0,0-14,0V21.84H17.51A17.52,17.52,0,0,0,0,39.35V148.69a17.53,17.53,0,0,0,17.51,17.52H126.66a44.82,44.82,0,0,1,0-14H17.51A3.52,3.52,0,0,1,14,148.69V83H163.71v32.36a44.85,44.85,0,0,1,14,.06v-76A17.53,17.53,0,0,0,160.19,21.84ZM163.71,69H14V39.35a3.51,3.51,0,0,1,3.51-3.51H44.79V50.67a7,7,0,0,0,14,0V35.84h60.67V50.67a7,7,0,0,0,14,0V35.84h26.73a3.52,3.52,0,0,1,3.52,3.51Z"/><path class="cls-1" d="M49.84,99.64a7.77,7.77,0,0,0-.64-1.21,7.44,7.44,0,0,0-.87-1.06,6.79,6.79,0,0,0-1.07-.87,6.7,6.7,0,0,0-1.21-.65,7.35,7.35,0,0,0-1.31-.4,7,7,0,0,0-2.73,0,7.35,7.35,0,0,0-1.31.4,6.7,6.7,0,0,0-1.21.65,6.79,6.79,0,0,0-1.07.87,7.44,7.44,0,0,0-.87,1.06,7.77,7.77,0,0,0-.64,1.21,7.35,7.35,0,0,0-.4,1.31,6.72,6.72,0,0,0,0,2.73,7.21,7.21,0,0,0,1,2.52,7.53,7.53,0,0,0,.87,1.07,8.13,8.13,0,0,0,1.07.87,7.21,7.21,0,0,0,2.52,1,6.72,6.72,0,0,0,2.73,0,7.21,7.21,0,0,0,2.52-1,8.13,8.13,0,0,0,1.07-.87,7.53,7.53,0,0,0,.87-1.07,7.21,7.21,0,0,0,1-2.52,7.23,7.23,0,0,0,0-2.73A7.35,7.35,0,0,0,49.84,99.64Z"/><path class="cls-1" d="M80.16,99.64a7.77,7.77,0,0,0-.64-1.21,7.44,7.44,0,0,0-.87-1.06,6.79,6.79,0,0,0-1.07-.87,6.7,6.7,0,0,0-1.21-.65,7.35,7.35,0,0,0-1.31-.4,7,7,0,0,0-2.73,0,7.35,7.35,0,0,0-1.31.4,6.7,6.7,0,0,0-1.21.65,6.79,6.79,0,0,0-1.07.87,7.44,7.44,0,0,0-.87,1.06,7.77,7.77,0,0,0-.64,1.21,7.35,7.35,0,0,0-.4,1.31,6.72,6.72,0,0,0,0,2.73,7.21,7.21,0,0,0,1,2.52,7.53,7.53,0,0,0,.87,1.07,8.13,8.13,0,0,0,1.07.87,7.21,7.21,0,0,0,2.52,1,6.72,6.72,0,0,0,2.73,0,7.21,7.21,0,0,0,2.52-1,8.13,8.13,0,0,0,1.07-.87,7.53,7.53,0,0,0,.87-1.07,7.21,7.21,0,0,0,1-2.52,7.23,7.23,0,0,0,0-2.73A7.35,7.35,0,0,0,80.16,99.64Z"/><path class="cls-1" d="M110.48,99.64a7.77,7.77,0,0,0-.64-1.21,7.44,7.44,0,0,0-.87-1.06,6.79,6.79,0,0,0-1.07-.87,6.7,6.7,0,0,0-1.21-.65,7.35,7.35,0,0,0-1.31-.4,7,7,0,0,0-2.73,0,7.35,7.35,0,0,0-1.31.4,6.7,6.7,0,0,0-1.21.65,6.79,6.79,0,0,0-1.07.87,7.44,7.44,0,0,0-.87,1.06,7.77,7.77,0,0,0-.64,1.21,7.35,7.35,0,0,0-.4,1.31,6.72,6.72,0,0,0,0,2.73,7.21,7.21,0,0,0,1,2.52,7.53,7.53,0,0,0,.87,1.07,8.13,8.13,0,0,0,1.07.87,7.21,7.21,0,0,0,2.52,1,6.72,6.72,0,0,0,2.73,0,7.21,7.21,0,0,0,2.52-1,8.13,8.13,0,0,0,1.07-.87,7.53,7.53,0,0,0,.87-1.07,7.21,7.21,0,0,0,1-2.52,7.23,7.23,0,0,0,0-2.73A7.35,7.35,0,0,0,110.48,99.64Z"/><path class="cls-1" d="M140.8,99.64a7.77,7.77,0,0,0-.64-1.21,7.44,7.44,0,0,0-.87-1.06,6.79,6.79,0,0,0-1.07-.87,6.7,6.7,0,0,0-1.21-.65,7.35,7.35,0,0,0-1.31-.4,7,7,0,0,0-2.73,0,7.35,7.35,0,0,0-1.31.4,6.7,6.7,0,0,0-1.21.65,6.79,6.79,0,0,0-1.07.87,7.44,7.44,0,0,0-.87,1.06,7.77,7.77,0,0,0-.64,1.21,7.35,7.35,0,0,0-.4,1.31,6.72,6.72,0,0,0,0,2.73,7.21,7.21,0,0,0,1,2.52,7.53,7.53,0,0,0,.87,1.07,8.13,8.13,0,0,0,1.07.87,7.21,7.21,0,0,0,2.52,1,6.72,6.72,0,0,0,2.73,0,7.21,7.21,0,0,0,2.52-1,8.13,8.13,0,0,0,1.07-.87,7.53,7.53,0,0,0,.87-1.07,7.21,7.21,0,0,0,1-2.52,7.23,7.23,0,0,0,0-2.73A7.35,7.35,0,0,0,140.8,99.64Z"/><path class="cls-1" d="M49.84,127.42a7.77,7.77,0,0,0-.64-1.21,7.44,7.44,0,0,0-.87-1.06,6.79,6.79,0,0,0-1.07-.87,6.7,6.7,0,0,0-1.21-.65,7.35,7.35,0,0,0-1.31-.4,7,7,0,0,0-2.73,0,7.35,7.35,0,0,0-1.31.4,6.7,6.7,0,0,0-1.21.65,6.79,6.79,0,0,0-1.07.87,7.44,7.44,0,0,0-.87,1.06,7.77,7.77,0,0,0-.64,1.21,7.35,7.35,0,0,0-.4,1.31,6.72,6.72,0,0,0,0,2.73,7.21,7.21,0,0,0,1,2.52,7.53,7.53,0,0,0,.87,1.07,8.13,8.13,0,0,0,1.07.87A7.21,7.21,0,0,0,42,137a6.72,6.72,0,0,0,2.73,0,7.21,7.21,0,0,0,2.52-1,8.13,8.13,0,0,0,1.07-.87A7.53,7.53,0,0,0,49.2,134a7.21,7.21,0,0,0,1-2.52,7.23,7.23,0,0,0,0-2.73A7.35,7.35,0,0,0,49.84,127.42Z"/><path class="cls-1" d="M80.16,127.42a7.77,7.77,0,0,0-.64-1.21,7.44,7.44,0,0,0-.87-1.06,6.79,6.79,0,0,0-1.07-.87,6.7,6.7,0,0,0-1.21-.65,7.35,7.35,0,0,0-1.31-.4,7,7,0,0,0-2.73,0,7.35,7.35,0,0,0-1.31.4,6.7,6.7,0,0,0-1.21.65,6.79,6.79,0,0,0-1.07.87,7.44,7.44,0,0,0-.87,1.06,7.77,7.77,0,0,0-.64,1.21,7.35,7.35,0,0,0-.4,1.31,6.72,6.72,0,0,0,0,2.73,7.21,7.21,0,0,0,1,2.52,7.53,7.53,0,0,0,.87,1.07,8.13,8.13,0,0,0,1.07.87,7.21,7.21,0,0,0,2.52,1,6.72,6.72,0,0,0,2.73,0,7.21,7.21,0,0,0,2.52-1,8.13,8.13,0,0,0,1.07-.87,7.53,7.53,0,0,0,.87-1.07,7.21,7.21,0,0,0,1-2.52,7.23,7.23,0,0,0,0-2.73A7.35,7.35,0,0,0,80.16,127.42Z"/><path class="cls-1" d="M110.48,127.42a7.77,7.77,0,0,0-.64-1.21,7.44,7.44,0,0,0-.87-1.06,6.79,6.79,0,0,0-1.07-.87,6.7,6.7,0,0,0-1.21-.65,7.35,7.35,0,0,0-1.31-.4,7,7,0,0,0-2.73,0,7.35,7.35,0,0,0-1.31.4,6.7,6.7,0,0,0-1.21.65,6.79,6.79,0,0,0-1.07.87,7.44,7.44,0,0,0-.87,1.06,7.77,7.77,0,0,0-.64,1.21,7.35,7.35,0,0,0-.4,1.31,6.72,6.72,0,0,0,0,2.73,7.21,7.21,0,0,0,1,2.52,7.53,7.53,0,0,0,.87,1.07,8.13,8.13,0,0,0,1.07.87,7.21,7.21,0,0,0,2.52,1,6.72,6.72,0,0,0,2.73,0,7.21,7.21,0,0,0,2.52-1,8.13,8.13,0,0,0,1.07-.87,7.53,7.53,0,0,0,.87-1.07,7.21,7.21,0,0,0,1-2.52,7.23,7.23,0,0,0,0-2.73A7.35,7.35,0,0,0,110.48,127.42Z"/><path class="cls-1" d="M140.38,126.59a44.63,44.63,0,0,0-8.18,10.16,3.86,3.86,0,0,1-.54-.19,6.66,6.66,0,0,1-1.21-.64,8.13,8.13,0,0,1-1.07-.87,7.53,7.53,0,0,1-.87-1.07,7.21,7.21,0,0,1-1-2.52,6.72,6.72,0,0,1,0-2.73,7.35,7.35,0,0,1,.4-1.31,7.77,7.77,0,0,1,.64-1.21,7.44,7.44,0,0,1,.87-1.06,6.79,6.79,0,0,1,1.07-.87,6.7,6.7,0,0,1,1.21-.65,7.35,7.35,0,0,1,1.31-.4,7,7,0,0,1,2.73,0,7.35,7.35,0,0,1,1.31.4,6.7,6.7,0,0,1,1.21.65,6.79,6.79,0,0,1,1.07.87,7.44,7.44,0,0,1,.87,1.06A2.88,2.88,0,0,1,140.38,126.59Z"/><path class="cls-2" d="M143.39,164.28l16.52,16.53a2.84,2.84,0,0,0,4,0l29.69-29.68a2.84,2.84,0,0,0,0-4l-4-4a2.82,2.82,0,0,0-4,0l-21.69,21.68a2.82,2.82,0,0,1-4,0l-8.53-8.53a2.84,2.84,0,0,0-4,0l-4,4A2.82,2.82,0,0,0,143.39,164.28Z"/></svg>