<svg id="Calque_1" data-name="Calque 1" xmlns="http://www.w3.org/2000/svg" xmlns:xlink="http://www.w3.org/1999/xlink" viewBox="0 0 74 71"><defs><style>.cls-1{fill:none;}.cls-2{clip-path:url(#clip-path);}.cls-3{fill:#e9e9e9;}.cls-4{opacity:0.49;}.cls-5{fill:#0d364d;}</style><clipPath id="clip-path"><rect class="cls-1" width="74" height="71"/></clipPath></defs><g class="cls-2"><g id="Groupe_de_masques_1" data-name="Groupe de masques 1"><rect id="Rectangle_43" data-name="Rectangle 43" class="cls-3" x="-29" y="-4" width="132" height="75"/><g id="Groupe_26" data-name="Groupe 26" class="cls-4"><path id="Rectangle_21-2" data-name="Rectangle 21-2" class="cls-5" d="M37,18h0A15,15,0,0,1,52,33h0A15,15,0,0,1,37,48h0A15,15,0,0,1,22,33h0A15,15,0,0,1,37,18Z"/><g id="Groupe_27" data-name="Groupe 27"><path id="Rectangle_22-2" data-name="Rectangle 22-2" class="cls-5" d="M37.5,55h0A34.5,34.5,0,0,1,72,89.49h0A34.5,34.5,0,0,1,37.5,124h0A34.49,34.49,0,0,1,3,89.49H3A34.5,34.5,0,0,1,37.5,55Z"/></g></g></g></g></svg>